<svg height="512pt" viewBox="-8 0 512 512" width="512pt" xmlns="http://www.w3.org/2000/svg"><path d="m458.511719 512h-421.832031c-20.257813 0-36.679688-16.421875-36.679688-36.679688v-438.640624c0-20.257813 16.421875-36.679688 36.679688-36.679688h421.832031c20.257812 0 36.679687 16.421875 36.679687 36.679688v438.640624c0 20.257813-16.421875 36.679688-36.679687 36.679688zm0 0" fill="#60daff"/><path d="m495.1875 36.675781v438.648438c0 20.253906-16.417969 36.675781-36.671875 36.675781h-48.417969c20.253906 0 36.671875-16.421875 36.671875-36.675781v-438.648438c0-20.253906-16.421875-36.675781-36.671875-36.675781h48.417969c20.253906 0 36.671875 16.421875 36.671875 36.675781zm0 0" fill="#38aaff"/><path d="m344.441406 41.144531v73.257813c0 5.6875-4.613281 10.300781-10.300781 10.300781h-173.089844c-5.6875 0-10.304687-4.613281-10.304687-10.300781v-73.257813c0-5.6875 4.617187-10.300781 10.304687-10.300781h173.089844c5.6875 0 10.300781 4.617188 10.300781 10.300781zm0 0" fill="#c1dbd6"/><path d="m263.5 30.84375-93.859375 93.859375h-8.589844c-5.6875 0-10.304687-4.613281-10.304687-10.300781v-10.199219l73.359375-73.359375zm0 0" fill="#d9efec"/><path d="m205.871094 30.84375-55.125 55.125v-24.28125l30.84375-30.84375zm0 0" fill="#d9efec"/><path d="m176.863281 192.820312v211.371094c0 28.421875-15.113281 53.136719-37.3125 65.644532-.382812.007812-.773437.007812-1.164062.007812-38.878907 0-70.402344-31.511719-70.402344-70.402344v-158.945312c0-28.617188 18.089844-54.113282 45.101563-63.570313l42.96875-15.042969c2.027343-.710937 4.058593-1.246093 6.085937-1.617187 8.859375 7.550781 14.722656 19.121094 14.722656 32.554687zm0 0" fill="#95c6df"/><path d="m208.796875 199.300781v200.140625c0 38.5-30.894531 69.777344-69.246094 70.394532 22.199219-12.507813 37.3125-37.222657 37.3125-65.644532v-211.371094c0-13.433593-5.863281-25.003906-14.722656-32.554687 23.765625-4.359375 46.65625 13.875 46.65625 39.035156zm0 0" fill="#75a4c8"/><path d="m268.769531 107.308594h-21.175781c-4.265625 0-7.726562-3.457032-7.726562-7.722656 0-4.269532 3.460937-7.726563 7.726562-7.726563h13.453125v-8.015625h-13.453125c-4.265625 0-7.726562-3.457031-7.726562-7.726562v-19.457032c0-4.265625 3.460937-7.726562 7.726562-7.726562h21.175781c4.269531 0 7.726563 3.460937 7.726563 7.726562s-3.457032 7.726563-7.726563 7.726563h-13.449219v4.003906h13.449219c4.269531 0 7.726563 3.460937 7.726563 7.726563v23.464843c0 4.269531-3.457032 7.726563-7.726563 7.726563zm0 0" fill="#4c78a0"/><path d="m310.207031 107.308594h-21.175781c-4.265625 0-7.726562-3.457032-7.726562-7.722656 0-4.269532 3.460937-7.726563 7.726562-7.726563h13.449219v-8.015625h-13.449219c-4.265625 0-7.726562-3.457031-7.726562-7.726562v-19.457032c0-4.265625 3.460937-7.726562 7.726562-7.726562h21.175781c4.265625 0 7.726563 3.460937 7.726563 7.726562s-3.460938 7.726563-7.726563 7.726563h-13.449219v4.003906h13.449219c4.265625 0 7.726563 3.460937 7.726563 7.726563v23.464843c0 4.269531-3.460938 7.726563-7.726563 7.726563zm0 0" fill="#4c78a0"/><path d="m221.21875 107.3125c-.023438 0-.046875 0-.070312-.003906h-.113282c-4.265625-.039063-7.695312-3.527344-7.65625-7.792969.039063-4.246094 3.488282-7.660156 7.722656-7.660156.027344 0 .046876 0 .070313.003906h.113281c4.269532.039063 7.695313 3.527344 7.65625 7.792969-.035156 4.246094-3.488281 7.660156-7.722656 7.660156zm0 0" fill="#4c78a0"/><path d="m395.269531 233.378906v174.191406c0 25.09375-10.929687 47.386719-27.863281 61.480469-3.460938.523438-6.996094.792969-10.601562.792969-38.890626 0-70.414063-31.511719-70.414063-70.402344v-200.140625c0-27.3125 26.96875-46.453125 52.746094-37.417969l23.457031 8.210938c19.984375 13.15625 32.675781 37.015625 32.675781 63.285156zm0 0" fill="#95c6df"/><path d="m427.207031 240.496094v158.945312c0 35.285156-25.949219 64.5-59.800781 69.609375 16.933594-14.089843 27.863281-36.386719 27.863281-61.480469v-174.191406c0-26.273437-12.691406-50.132812-32.675781-63.285156l19.511719 6.828125c27.011719 9.457031 45.101562 34.957031 45.101562 63.574219zm0 0" fill="#75a4c8"/><g fill="#d9efec"><path d="m382.363281 408.980469h-45.328125c-4.265625 0-7.726562-3.457031-7.726562-7.722657 0-4.269531 3.460937-7.726562 7.726562-7.726562h45.328125c4.265625 0 7.726563 3.457031 7.726563 7.726562 0 4.265626-3.460938 7.722657-7.726563 7.722657zm0 0"/><path d="m382.363281 368.804688h-45.328125c-4.265625 0-7.726562-3.457032-7.726562-7.726563 0-4.265625 3.460937-7.726563 7.726562-7.726563h45.328125c4.265625 0 7.726563 3.460938 7.726563 7.726563 0 4.269531-3.460938 7.726563-7.726563 7.726563zm0 0"/><path d="m382.363281 328.628906h-45.328125c-4.265625 0-7.726562-3.460937-7.726562-7.726562s3.460937-7.726563 7.726562-7.726563h45.328125c4.265625 0 7.726563 3.460938 7.726563 7.726563s-3.460938 7.726562-7.726563 7.726562zm0 0"/><path d="m382.363281 288.449219h-45.328125c-4.265625 0-7.726562-3.457031-7.726562-7.722657 0-4.269531 3.460937-7.726562 7.726562-7.726562h45.328125c4.265625 0 7.726563 3.457031 7.726563 7.726562 0 4.265626-3.460938 7.722657-7.726563 7.722657zm0 0"/><path d="m158.15625 408.980469h-45.328125c-4.269531 0-7.726563-3.457031-7.726563-7.722657 0-4.269531 3.457032-7.726562 7.726563-7.726562h45.328125c4.265625 0 7.726562 3.457031 7.726562 7.726562 0 4.265626-3.460937 7.722657-7.726562 7.722657zm0 0"/><path d="m158.15625 368.804688h-45.328125c-4.269531 0-7.726563-3.457032-7.726563-7.726563 0-4.265625 3.457032-7.726563 7.726563-7.726563h45.328125c4.265625 0 7.726562 3.460938 7.726562 7.726563 0 4.269531-3.460937 7.726563-7.726562 7.726563zm0 0"/><path d="m158.15625 328.628906h-45.328125c-4.269531 0-7.726563-3.460937-7.726563-7.726562s3.457032-7.726563 7.726563-7.726563h45.328125c4.265625 0 7.726562 3.460938 7.726562 7.726563s-3.460937 7.726562-7.726562 7.726562zm0 0"/><path d="m158.15625 288.449219h-45.328125c-4.269531 0-7.726563-3.457031-7.726563-7.722657 0-4.269531 3.457032-7.726562 7.726563-7.726562h45.328125c4.265625 0 7.726562 3.457031 7.726562 7.726562 0 4.265626-3.460937 7.722657-7.726562 7.722657zm0 0"/></g></svg>