<svg height="512" viewBox="0 0 64 64" width="512" xmlns="http://www.w3.org/2000/svg" xmlns:xlink="http://www.w3.org/1999/xlink"><linearGradient id="linear-gradient" gradientUnits="userSpaceOnUse" x1="32.148" x2="31.838" y1="-60.99" y2="133.805"><stop offset="0" stop-color="#fdc830"/><stop offset="1" stop-color="#f37335"/></linearGradient><linearGradient id="linear-gradient-2" x1="32.915" x2="31.75" xlink:href="#linear-gradient" y1="-24.428" y2="79.96"/><linearGradient id="linear-gradient-3" x1="32" x2="32" xlink:href="#linear-gradient" y1="-752.435" y2="-558.024"/><g id="Calculator"><rect fill="url(#linear-gradient)" height="64" rx="6" width="64"/><path d="m6 64h52a6.006 6.006 0 0 0 6-6v-34.271c-6.686 17.4-23.354 35.423-64 33.437v.834a6.006 6.006 0 0 0 6 6z" fill="url(#linear-gradient-2)"/><path d="m4 16.892a1 1 0 0 1 -1-1v-9.892a3 3 0 0 1 3-3h10.306a1 1 0 0 1 0 2h-10.306a1 1 0 0 0 -1 1v9.892a1 1 0 0 1 -1 1z" fill="#fff"/><path d="m60 46.31a1 1 0 0 1 -1-1v-6.518a1 1 0 0 1 2 0v6.518a1 1 0 0 1 -1 1z" fill="#fff"/><path d="m25.206 5h-2.145a1 1 0 0 1 0-2h2.145a1 1 0 0 1 0 2z" fill="#fff"/><path d="m56 30h-22v-22a2 2 0 0 0 -4 0v22h-22a2 2 0 0 0 0 4h22v22a2 2 0 0 0 4 0v-22h22a2 2 0 0 0 0-4z" fill="url(#linear-gradient-3)"/><g fill="#ffebbd"><path d="m22.333 15h-3.333v-3.333a2 2 0 0 0 -4 0v3.333h-3.333a2 2 0 0 0 0 4h3.333v3.333a2 2 0 0 0 4 0v-3.333h3.333a2 2 0 0 0 0-4z"/><path d="m43.519 22.747 2.919-2.919 2.919 2.919a2 2 0 0 0 2.829-2.828l-2.92-2.919 2.92-2.919a2 2 0 0 0 -2.829-2.828l-2.919 2.919-2.919-2.919a2 2 0 0 0 -2.828 2.828l2.919 2.919-2.919 2.919a2 2 0 0 0 2.828 2.828z"/><path d="m22.333 45h-10.666a2 2 0 0 0 0 4h10.666a2 2 0 0 0 0-4z"/><path d="m52.333 45h-10.666a2 2 0 0 0 0 4h10.666a2 2 0 0 0 0-4z"/><path d="m44.667 41.333a2.333 2.333 0 0 0 4.666 0 2.333 2.333 0 0 0 -4.666 0z"/><path d="m44.667 52.667a2.333 2.333 0 0 0 4.666 0 2.333 2.333 0 0 0 -4.666 0z"/></g></g></svg>